<?xml version="1.0" encoding="utf-8"?>
<!-- Generator: Adobe Illustrator 17.0.2, SVG Export Plug-In . SVG Version: 6.00 Build 0)  -->
<!DOCTYPE svg PUBLIC "-//W3C//DTD SVG 1.1//EN" "http://www.w3.org/Graphics/SVG/1.1/DTD/svg11.dtd">
<svg version="1.1" id="Layer_1" xmlns="http://www.w3.org/2000/svg" xmlns:xlink="http://www.w3.org/1999/xlink" x="0px" y="0px"
	 width="64px" height="64px" viewBox="0 0 64 64" style="enable-background:new 0 0 64 64;" xml:space="preserve">
<g>
	<path d="M38.959,19.193c-1.131,0.257-2.769,0.237-4.994-0.674c-1.092-0.447-2.319-1.102-3.701-2.054c0,0,1.573,1.683,3.575,2.919
		c0.195,0.12,0.394,0.236,0.596,0.346c0.003,0.091,0.003,0.18,0.013,0.273c0.269,2.694,1.639,4.762,3.058,4.62
		c1.336-0.133,2.223-2.183,2.101-4.668c0.509-0.397,0.973-0.969,1.359-1.792C40.965,18.164,40.337,18.88,38.959,19.193z"/>
	<path d="M48.546,19.253c-1.469,0.949-3.469,0.818-5.016,0.481c-1.329-0.289-2.318-0.718-2.318-0.718
		c0.689,0.597,1.324,1.058,1.912,1.414c0.003,0.217,0.014,0.437,0.036,0.662c0.269,2.694,1.639,4.762,3.058,4.62
		c1.42-0.142,2.353-2.44,2.084-5.134c-0.001-0.013-0.003-0.025-0.006-0.037c0.216-0.197,0.415-0.408,0.579-0.632
		c0.723-0.983,0.979-2.082,0.979-2.082C49.517,18.468,49.061,18.92,48.546,19.253z"/>
</g>
<path d="M62.657,19.853c-0.615-0.654-1.415-1-2.312-1c-1.194,0-2.473,0.601-3.978,1.871c-4.202-9.264-13.741-15.59-25.108-15.59
	c-11.386,0-19.812,5.127-23.448,14.148c-0.503-0.46-1.034-0.894-1.604-1.298c-0.574-0.591-1.615-1.188-2.797-1.039
	c-1.19,0.154-2.172,0.967-2.92,2.416l-0.074,0.165c-0.104,0.272-2.302,6.341,4.589,15.539l-0.347,0.087
	c-1.04,0.26-1.875,0.934-2.294,1.85c-0.418,0.916-0.38,1.99,0.105,2.945l0.101,0.173c0.302,0.448,7.45,10.991,14.86,15.107
	c3.647,2.416,8.299,3.64,13.828,3.64c13.516,0,24.772-9.836,27.003-22.725c1.709-0.583,4.979-2.8,5.724-11.272
	C64.019,24.306,64.12,21.41,62.657,19.853z M31.257,55.599c-4.901,0-8.963-1.053-12.072-3.128l-0.119-0.073
	c-6.372-3.508-12.963-12.906-13.716-14c-0.007-0.018-0.013-0.03-0.018-0.03c0.016-0.011,0.053-0.031,0.116-0.047l2.299-0.575
	c0.058-0.011,0.12-0.006,0.181-0.006l3.588,0.019L9.175,35.04C2.07,26.786,3.28,21.366,3.448,20.753
	c0.15-0.273,0.267-0.414,0.346-0.495c3.805,1.936,7.796,4.4,9.911,8.248c0.355-0.159,0.676-0.132,0.518-0.537
	c-0.243-0.623-0.549-1.213-0.847-1.81c-0.691-1.249-1.499-2.5-2.445-3.572c-0.2-0.227-0.398-0.452-0.596-0.675
	c2.788-8.587,10.388-13.511,20.921-13.511c13.538,0,24.144,10.127,24.144,23.054C55.401,44.768,44.57,55.599,31.257,55.599z
	 M60.726,24.626c-0.337,3.825-1.199,5.93-2.005,7.085l-0.299-8.449c1.315-1.12,1.879-1.146,1.848-1.177
	C60.554,22.335,60.781,23.639,60.726,24.626z"/>
<path d="M41.431,32.566l0.043,0.202l-0.028,0.082c0.342,0.018,0.676,0.097,1.011,0.098l-1.075,4.477l-1.046-4.71l0.968-0.15
	c-7.973-0.136-13.509-3.919-13.509-3.919c1.372,3.523,1.078,11.538,1.078,11.538c0.455,8.356,5.854,9.502,5.854,9.502
	c8.169,2.383,12.185-4.527,12.185-4.527c4.221-6.944,4.493-14.477,4.493-14.477C47.845,32.113,44.465,32.603,41.431,32.566z
	 M32.346,42.075L29.62,29.94c0.026,0.014,0.05,0.032,0.076,0.046l0.824,0.454c0.548,0.311,1.136,0.531,1.714,0.78l0.871,0.368
	l0.9,0.286l0.108,0.033L32.346,42.075z M37.026,37.536l-1.17-5.143l1.837,0.333c0.152,0.023,0.303,0.053,0.455,0.078L37.026,37.536z
	 M45.102,32.848c0.912-0.106,1.821-0.264,2.704-0.534c0.26-0.067,0.515-0.151,0.768-0.247c0.252-0.097,0.511-0.167,0.754-0.287
	c0.021-0.009,0.041-0.019,0.061-0.028l-1.794,10.323L45.102,32.848z"/>
<path d="M34.266,31.029l-0.153,0.879l0.798,0.243c0.304,0.085,0.603,0.194,0.916,0.237l0.029,0.005l-0.24-1.055
	C35.166,31.242,34.721,31.118,34.266,31.029z"/>
<path d="M29.051,29.218c-0.562-0.258-1.107-0.54-1.652-0.849c0.465,0.411,0.972,0.786,1.501,1.117
	c0.24,0.15,0.471,0.318,0.719,0.455l-0.115-0.51C29.354,29.359,29.205,29.285,29.051,29.218z"/>
<path d="M44.571,31.92c-0.619,0.029-1.243,0.039-1.864,0.034l-0.249,1.05c0.734,0.003,1.461-0.019,2.19-0.094
	c0.152-0.014,0.302-0.044,0.454-0.062l-0.257-0.952C44.753,31.903,44.662,31.915,44.571,31.92z"/>
<path d="M52.413,29.305c-0.163,0.201-0.395,0.335-0.586,0.504c-0.192,0.171-0.408,0.309-0.635,0.432
	c-0.225,0.124-0.43,0.274-0.673,0.363l-0.696,0.313l-0.307,0.108l-0.126,0.727c0.474-0.205,0.942-0.427,1.372-0.719
	c0.236-0.129,0.436-0.319,0.65-0.482c0.216-0.161,0.418-0.336,0.594-0.543c0.173-0.206,0.39-0.368,0.522-0.605l0.423-0.671
	L52.413,29.305z"/>
<path d="M39.644,31.827l-0.91-0.036c-0.114,0.002-0.226-0.013-0.339-0.027l-0.246,1.039c0.16,0.026,0.321,0.047,0.484,0.047
	l0.947,0.053l0.758,0.035l-0.248-1.089L39.644,31.827z"/>
<path d="M34.248,31.024l-0.894-0.2l-0.871-0.282c-0.579-0.193-1.173-0.357-1.73-0.613l-0.859-0.336
	c-0.134-0.046-0.262-0.104-0.389-0.164l0.115,0.51c0.026,0.014,0.05,0.032,0.076,0.046l0.824,0.454
	c0.548,0.311,1.136,0.531,1.714,0.78l0.871,0.368l0.9,0.286l0.108,0.033l0.153-0.879C34.26,31.028,34.254,31.026,34.248,31.024z"/>
<path d="M49.101,31.171c-0.236,0.093-0.492,0.137-0.736,0.209c-0.245,0.07-0.493,0.128-0.747,0.17
	c-0.913,0.18-1.842,0.283-2.773,0.347l0.257,0.952c0.912-0.106,1.821-0.264,2.704-0.534c0.26-0.067,0.515-0.151,0.768-0.247
	c0.252-0.097,0.511-0.167,0.754-0.287c0.021-0.009,0.041-0.019,0.061-0.028l0.126-0.727L49.101,31.171z"/>
<path d="M37.831,31.684l-1.804-0.26c-0.139-0.019-0.274-0.057-0.411-0.086l0.24,1.055l1.837,0.333
	c0.152,0.023,0.303,0.053,0.455,0.078l0.246-1.039C38.207,31.741,38.019,31.71,37.831,31.684z"/>
<path d="M41.511,31.919l-0.048-0.002l-1.372-0.068l0.248,1.089l1.109,0.051c0.342,0.018,0.676,0.014,1.011,0.015l0.249-1.05
	C42.304,31.951,41.902,31.947,41.511,31.919z"/>
<path d="M41.475,32.99l-0.028-0.001c-0.007,0-0.013,0-0.02,0L41.475,32.99z"/>
</svg>
