<?xml version="1.0" encoding="utf-8"?>
<!-- Generator: Adobe Illustrator 17.0.2, SVG Export Plug-In . SVG Version: 6.00 Build 0)  -->
<!DOCTYPE svg PUBLIC "-//W3C//DTD SVG 1.1//EN" "http://www.w3.org/Graphics/SVG/1.1/DTD/svg11.dtd">
<svg version="1.1" id="Layer_1" xmlns="http://www.w3.org/2000/svg" xmlns:xlink="http://www.w3.org/1999/xlink" x="0px" y="0px"
	 width="64px" height="64px" viewBox="0 0 64 64" style="enable-background:new 0 0 64 64;" xml:space="preserve">
<ellipse cx="20.549" cy="36.703" rx="3.739" ry="7.385"/>
<ellipse cx="32.888" cy="36.703" rx="3.739" ry="7.385"/>
<path d="M15.313,45.958c0,0,14.35,24.679,26.362-1.87C41.675,44.089,27.653,59.064,15.313,45.958z"/>
<g>
	<path d="M55.103,25.591c0.538-0.667,0.855-1.409,0.931-2.225c0.207-2.23-1.45-4.159-2.23-4.934
		c-0.154-0.403-0.653-0.564-1.812-0.774c-1.677-3.724-5.53-6.191-8.34-7.564C42.88,4.416,37.448,0,30.872,0
		c-5.005,0-9.341,2.562-11.474,6.286c-1.206,1.073-1.982,2.62-1.982,4.357c0,0.976,0.263,1.883,0.687,2.693
		c-0.645,0.983-1.06,2.038-1.224,3.115c-3.679,0.309-6.559,2.775-6.61,5.777c-2.694,2.054-4.399,5.012-4.399,8.306
		c0,0.267,0.014,0.542,0.042,0.829c-2.928,2.928-4.529,6.733-4.529,10.809c0,5.685,3.147,10.826,8.27,13.609
		c1.054,4.105,5.647,7.097,11.128,7.097c2.508,0,4.901-0.63,6.863-1.79C30.673,62.972,34.543,64,38.684,64
		c7.554,0,13.98-3.414,15.943-8.382c4.944-3.076,7.988-8.828,7.988-15.176C62.616,34.149,59.597,28.644,55.103,25.591z
		 M44.774,18.654c1.354,0.272,3.21,0.603,5.792,1.034c0.698,0.117,1.262,0.209,1.59,0.269c0.177,0.172,0.401,0.418,0.626,0.703
		c0.545,0.689,1.098,1.633,1.018,2.497c-0.042,0.45-0.279,0.875-0.68,1.275c-0.316-0.15-0.644-0.273-0.971-0.4
		c-0.833-0.324-1.696-0.567-2.585-0.73c-0.552-2.028-2.419-3.666-4.852-4.325C44.736,18.871,44.756,18.763,44.774,18.654z
		 M47.491,24.551c0,0.213-0.04,0.421-0.092,0.625c-0.095,0.371-0.281,0.718-0.527,1.044c-0.056,0.074-0.109,0.15-0.172,0.221
		c-0.919,1.041-2.541,1.756-4.361,1.756c-2.533,0-4.69-1.378-5.071-3.109c-0.019-0.085-0.028-0.172-0.038-0.259
		c-0.005-0.04-0.015-0.078-0.017-0.118c-0.004-0.054-0.024-0.106-0.024-0.161c0-0.234,0.038-0.462,0.101-0.685
		c0.04-0.142,0.11-0.275,0.173-0.411l0.002-0.011c0.141-0.277,0.456-0.779,1.041-1.267c0.113-0.091,0.225-0.182,0.349-0.264
		c0.005-0.003,0.01-0.007,0.015-0.01c0.356-0.234,0.758-0.434,1.195-0.592c0.17-0.061,0.34-0.117,0.519-0.165
		c0.15-0.04-0.054-0.071,0.1-0.104C40.897,21.002,41,20.971,41,20.948v0.002c1-0.016,0.709-0.033,0.886-0.039
		c0.136,0.007,1.003,0.06,1.901,0.414c0.002,0.006,0.095,0.024,0.097,0.025c0.088,0.022,0.211,0.059,0.296,0.085
		c1.016,0.45,2.261,1.284,3.248,2.848C47.439,24.373,47.491,24.46,47.491,24.551z M30.872,1.774c4.85,0,8.945,3.226,10.22,6.226
		h-0.155h-0.585H38.69c-0.735-2-2.941-3.682-5.573-3.682c-2.068,0-3.88,1.32-4.922,2.944c-0.998-1.555-2.706-2.714-4.666-2.8
		C25.44,2.873,28.025,1.774,30.872,1.774z M31.484,10.643c-0.767,0-1.436,0.403-1.819,1.006c-0.094-0.321-0.16-0.655-0.16-1.006
		c0-1.992,1.62-3.612,3.612-3.612c1.992,0,3.612,1.62,3.612,3.612c0,1.992-1.62,3.612-3.612,3.612c-0.015,0-0.029-0.004-0.045-0.005
		c0.35-0.384,0.569-0.889,0.569-1.45C33.641,11.609,32.675,10.643,31.484,10.643z M21.161,7.726
		c0.595-0.432,1.321-0.695,2.112-0.695c1.992,0,3.612,1.62,3.612,3.612c0,1.992-1.62,3.612-3.612,3.612
		c-0.015,0-0.029-0.004-0.045-0.005c0.35-0.384,0.569-0.889,0.569-1.45c0-1.192-0.966-2.158-2.158-2.158
		c-0.532,0-1.012,0.2-1.388,0.518c-0.167,0.141-0.313,0.302-0.431,0.487c-0.094-0.321-0.16-0.654-0.16-1.006
		C19.661,9.442,20.256,8.383,21.161,7.726z M19.626,15.188c1.004,0.807,2.261,1.311,3.646,1.311c2.069,0,3.88-1.085,4.922-2.709
		c1.042,1.624,2.853,2.556,4.922,2.556c2.648,0,4.865-2.346,5.587-4.346h0.98h1.487h0.271l0.021,0.205
		c-0.036,0.329-0.089,0.733-0.166,1.056l-0.118,0.543l0.308,0.437c0.645,0.875,1.004,1.801,1.105,2.737
		c0.018,0.171,0.045,0.345,0.045,0.517c0,0.398-0.056,0.789-0.148,1.169c-0.049-0.001-0.097-0.005-0.147-0.005
		c-0.158,0-0.312,0.012-0.468,0.019c-0.386,0.019-0.765,0.059-1.133,0.124c-0.689,0.122-1.344,0.318-1.947,0.582
		c-0.17-0.017-0.342-0.018-0.514-0.029c-0.269-0.017-0.537-0.04-0.81-0.04c-3.354,0-6.462,1.264-8.654,3.455
		c-1.206-1.06-2.373-1.898-3.948-2.487c-0.099-0.037-0.22-0.068-0.328-0.103c-0.9-1.841-2.915-3.24-5.393-3.644
		C19.239,16.08,19.402,15.63,19.626,15.188z M13.219,20.521c0.779-0.949,2.13-1.636,3.701-1.805c0.244-0.026,0.488-0.055,0.74-0.055
		c0.134,0,0.261,0.021,0.392,0.029c0.416,0.024,0.817,0.083,1.202,0.175c0.515,0.124,0.996,0.298,1.428,0.525
		c0.955,0.503,1.663,1.226,1.961,2.056c0.1,0.278,0.168,0.564,0.168,0.861c0,0.242-0.037,0.479-0.105,0.709
		c-0.016,0.055-0.048,0.107-0.068,0.161c-0.104,0.286-0.261,0.555-0.456,0.811c-0.877,1.153-2.586,1.965-4.523,1.965
		c-1.811,0-3.427-0.708-4.348-1.741c-0.499-0.56-0.803-1.211-0.803-1.905C12.509,21.66,12.781,21.054,13.219,20.521z M52.415,53.019
		l-0.581,0.329l-0.197,0.638c-1.177,3.79-6.745,6.65-12.954,6.65c-3.84,0-7.498-1.067-10.036-2.928l-1.006-0.737l-0.999,0.748
		c-1.542,1.158-3.624,1.796-5.86,1.796c-4.116,0-7.613-2.223-7.961-5.06l-0.112-0.914l-0.831-0.399
		C7.481,51.032,4.75,46.829,4.75,42.172c0-3.407,1.448-6.58,4.076-8.934l0.705-0.632l-0.174-0.93
		c-0.082-0.439-0.121-0.802-0.121-1.143c0-1.888,0.85-3.621,2.262-4.977c1.326,1.589,3.591,2.639,6.161,2.639
		c2.853,0,5.329-1.295,6.562-3.185c0.204-0.313,0.377-0.64,0.509-0.982c0.935,0.499,1.763,1.128,2.454,1.867
		c0.138,0.148,0.285,0.289,0.411,0.446l1.423,1.763l1.274-1.867l0.003-0.005c0.276-0.405,0.608-0.771,0.964-1.116
		c1.064-1.033,2.441-1.787,3.969-2.161c-0.18,0.508-0.283,1.041-0.283,1.595c0,0.031,0.005,0.06,0.006,0.091
		c0.007,0.382,0.057,0.755,0.152,1.116c0.701,2.67,3.679,4.683,7.237,4.683c3.145,0,5.83-1.574,6.898-3.782
		c5.685,1.189,10.014,6.911,10.014,13.784C59.25,45.814,56.632,50.633,52.415,53.019z"/>
	<path d="M33.87,17.353c0,0-4.69,3.616-9.339,0C24.531,17.353,28.401,24.224,33.87,17.353z"/>
</g>
</svg>
