<?xml version="1.0" encoding="utf-8"?>
<!-- Generator: Adobe Illustrator 17.0.2, SVG Export Plug-In . SVG Version: 6.00 Build 0)  -->
<!DOCTYPE svg PUBLIC "-//W3C//DTD SVG 1.1//EN" "http://www.w3.org/Graphics/SVG/1.1/DTD/svg11.dtd">
<svg version="1.1" id="Layer_1" xmlns="http://www.w3.org/2000/svg" xmlns:xlink="http://www.w3.org/1999/xlink" x="0px" y="0px"
	 width="64px" height="64px" viewBox="0 0 64 64" style="enable-background:new 0 0 64 64;" xml:space="preserve">
<g>
	<path d="M56.483,32.851c0.485-0.895,0.94-1.64,1.307-2.427c1.265-2.711,0.773-5.472,0.091-8.195
		c-1.545-6.172-4.699-11.446-9.395-15.7C41.52,0.219,33.386-1.661,24.543,1.519c-8.957,3.22-14.792,9.84-18.033,18.7
		c-1.565,4.278-1.334,8.531,1.181,12.577c-2.207,1.434-3.216,3.616-3.023,6.126c0.151,1.965,0.729,3.937,1.382,5.814
		c0.807,2.32,2.373,4.016,4.865,4.718c0.342,0.096,0.594,0.62,0.823,0.987c0.865,1.385,1.525,2.946,2.591,4.149
		c2.036,2.297,4.762,3.574,7.642,4.581c0.88,0.308,1.601,1.087,2.374,1.677c0.306,0.233,0.537,0.564,0.838,0.805
		c1.977,1.584,4.309,2.337,6.773,2.348c2.12,0.009,4.201-0.472,5.991-1.825c1.402-1.06,2.896-1.998,4.351-2.987
		c0.605-0.411,1.212-0.819,1.825-1.218c0.362-0.236,0.71-0.53,1.109-0.665c3.111-1.057,5.252-3.182,6.569-6.114
		c0.443-0.986,0.789-1.695,2-1.998c0.942-0.235,1.879-0.971,2.549-1.724c2.189-2.458,2.878-5.498,3-8.699
		C59.443,36.29,58.588,34.249,56.483,32.851z M24.705,15.957c-1.238-1.961-1.274-4.07-0.04-6.056c0.96-1.545,2.291-2.727,4.117-3.22
		l-0.039,0.032c0.008,0.011,0.017,0.021,0.025,0.032c0.004-0.015,0.007-0.031,0.011-0.046c2.77-1.24,5.458-1.092,8.002,0.588
		c2.499,1.649,3.349,6.199,1.832,9.024c-0.126,0.234-0.665,0.419-0.961,0.362c-3.743-0.724-7.445-0.643-11.167,0.22
		C25.974,17.01,25.025,16.465,24.705,15.957z M7.922,46.049c-1.611-2.681-2.5-5.568-1.996-8.725c0.125-0.785,0.445-1.626,0.93-2.239
		c0.453-0.573,1.378-1.344,1.859-1.206c1.078,0.31,2.331,0.853,2.138,2.46c-0.076,0.634-0.073,1.278-0.097,1.74
		c-0.811-0.539-1.598-1.229-2.515-1.58c-0.319-0.122-0.959,0.594-1.746,1.126c1.076-0.262,1.598-0.768,1.806-0.534
		c0.833,0.939,1.916,2.117,2.797,3.531c-1.421-0.203-2.549-0.567-2.736,1.021c1.342-1.174,2.211-0.917,2.511,0.885
		c0.316,1.896,0.37,3.835,0.554,5.927C9.78,48.095,8.665,47.286,7.922,46.049z M51.099,49.937c-0.34,2.153-1.872,3.655-3.54,4.873
		c-1.608,1.175-3.41,2.081-5.107,3.138c-1.277,0.796-2.634,1.514-3.76,2.492c-4.103,3.563-10.889,3.212-14.07-0.931
		c-0.531-0.691-1.552-1.146-2.436-1.402c-3.12-0.902-5.69-2.647-7.865-4.973c-1.936-2.072-1.946-4.765-2.086-7.388
		c-0.061-1.139,0.202-2.157,1.005-2.998c0.17-0.178,0.368-0.477,0.55-0.475c1.394,0.019,1.438-0.921,1.328-1.884
		c-0.128-1.12-0.369-2.227-0.556-3.34c-0.086-0.513-0.143-1.032-0.244-1.542c-0.665-3.382,0.964-5.462,3.98-6.84
		c-0.072,0.721-0.141,1.421-0.244,2.453c1.506-1.648,2.671-3.308,4.995-3.126c2.157,0.169,3.515,1.577,4.971,2.885
		c0.115-0.068,0.229-0.135,0.344-0.203c-1.005-1.83-2.01-3.659-3.034-5.525c4.123-1.581,8.555-1.034,13.251-0.747
		c-2.079,1.695-3.185,3.772-3.922,6.457c1.69-1.588,3.084-3.039,5.268-3.157c2.255-0.123,3.547,1.314,4.726,2.985
		c0.116-0.075,0.231-0.15,0.347-0.225c-0.355-1.387-0.711-2.774-1.112-4.341c2.514,1.369,4.79,3.04,6.067,5.418
		c0.919,1.711,0.15,3.812-0.834,5.615c-0.325,0.596-0.54,1.435-0.389,2.062c0.183,0.758,0.81,1.41,1.244,2.107
		c0.055-0.031,0.11-0.061,0.165-0.092c0.359,0.667,0.728,1.33,1.072,2.004c0.132,0.258,0.309,0.549,0.295,0.816
		C51.409,46.018,51.405,48.002,51.099,49.937z M52.665,48.488c0-1.77-0.075-3.524,0.042-5.266c0.039-0.581,0.509-1.176,0.891-1.682
		c0.626-0.829,1.324-0.948,1.986,0.015c-0.364-1.292-0.753-1.435-2.163-0.886c0.837-3.543,2.35-4.176,3.847-3.216
		c0.06-0.087,0,0,0.06-0.087c-0.529-0.315-1.217-1.013-1.557-0.872c-0.916,0.381-1.684,1.119-2.459,1.678
		c-0.696-1.589,0.004-3.596,1.802-4.355c0.273-0.115,0.756-0.028,1.01,0.152c1.395,0.992,2.105,2.361,2.186,4.092
		c0.115,2.457-0.511,4.729-1.539,6.927C55.933,46.779,54.644,48.015,52.665,48.488z"/>
	<path d="M45.715,40.896c-1.573,2.179-3.688,2.677-5.896,3.268c-0.189-0.983-0.342-1.782-0.504-2.624
		c1.703-0.44,2.653-1.545,3.028-3.153c0.518-2.224,0.433-4.402-0.689-6.447c-1.152-2.099-3.562-2.814-5.162-1.392
		c-0.81,0.72-1.47,1.764-1.834,2.79c-0.379,1.071-0.321,2.297-0.451,3.434c-0.907-0.109-1.812-0.288-2.721-0.306
		c-0.941-0.019-1.884,0.12-2.817,0.189c-0.132-0.963-0.199-1.919-0.403-2.845c-0.525-2.391-2.208-3.99-4.066-3.946
		c-1.788,0.043-3.383,1.66-3.814,4.052c-0.567,3.142-0.593,6.138,2.902,7.723c-0.139,0.847-0.265,1.613-0.408,2.483
		c-1.973-0.378-3.805-0.923-4.966-2.71c-2.72,2.118-2.838,5.379-0.187,7.195c1.032,0.706,1.955,1.254,2.394,2.559
		c0.198,0.586,1.159,1.16,1.853,1.28c1.203,0.208,2.468,0.372,3.869,0.372C25.939,52.947,26.164,53,26.482,54
		c-0.454,0-0.769,0-1.147,0c0.087,0,0.107,0.039,0.184,0.128c2.523,2.926,8.378,3.405,11.409,1.051
		c0.473-0.367,0.935-0.936,1.172-1.471c0.37-0.838,0.288-0.891,1.222-0.929c1.98-0.081,3.597-0.87,4.362-2.781
		c0.327-0.817,0.796-1.223,1.56-1.55c2.015-0.862,2.815-2.287,2.21-4.152C47.09,43.181,46.384,42.173,45.715,40.896z M37.676,30.415
		c1.307-0.351,2.6,0.201,3.435,1.578c1.42,2.343,1.395,4.828,0.425,7.292c-0.39,0.99-1.205,1.695-2.65,1.649
		c1.757-1.938,2.114-4.003,1.488-6.246c-0.331-1.186-0.766-2.367-2.163-2.713c-1.466-0.363-2.275,0.541-2.981,1.725
		C35.332,32.251,36.497,30.733,37.676,30.415z M36.705,32.577c0.905-0.625,1.665-0.314,2.327,0.381
		c1.692,1.777,1.495,5.687-0.625,7.309c0.066-0.322,0.024-0.741,0.214-0.95c1.382-1.523,1.38-3.238,0.586-4.949
		c-0.237-0.51-1.032-1.051-1.57-1.051c-0.543,0.001-1.357,0.544-1.568,1.051c-0.384,0.925-0.41,1.999-0.603,3.114
		C34.777,35.814,35.417,33.466,36.705,32.577z M21.267,39.319c-0.936-2.258-1.009-4.586,0.101-6.82
		c0.599-1.205,1.477-2.167,3.015-2.131c1.532,0.036,2.322,1.032,2.935,2.249c0.185,0.368,0.311,0.765,0.464,1.149
		c-0.056,0.026-0.112,0.051-0.168,0.077c-0.124-0.196-0.239-0.398-0.375-0.586c-0.582-0.802-1.293-1.668-2.336-1.281
		c-0.81,0.301-1.728,0.962-2.087,1.708c-1.204,2.502-0.941,4.956,0.924,7.191C22.438,41.037,21.669,40.288,21.267,39.319z
		 M24.023,39.196c0.189,0.232,0.171,0.634,0.249,0.957c-0.13,0.017-0.26,0.034-0.39,0.051c-1.605-1.866-1.821-4.796-0.502-6.796
		c1.025-1.553,2.619-1.548,3.502,0.073c0.617,1.133,1.031,2.352,0.48,3.707c-0.135-0.763-0.179-1.557-0.429-2.28
		c-0.297-0.859-0.693-1.742-1.877-1.673c-1.128,0.066-1.509,0.865-1.794,1.785C22.789,36.548,22.99,37.931,24.023,39.196z
		 M26.916,54.352c1.647,0,3.368-0.005,5.089,0.002c1.677,0.007,3.354,0.026,4.91,0.039C35.216,56.641,29.079,56.457,26.916,54.352z
		 M34.21,50.827c-3.671,1.529-8.207-0.206-9.908-3.739c-2.164-4.494,1.134-9.35,6.064-9.838c2.602-0.257,4.915,0.448,6.786,2.393
		c1.289,1.34,1.727,2.981,1.89,4.763C38.732,47.524,37.075,49.633,34.21,50.827z"/>
	<path d="M27.368,57.49c1.159,1.98,2.841,2.284,4.619,2.101c1.983-0.203,3.93-0.632,4.921-2.713
		C33.931,59.077,30.927,60.323,27.368,57.49z"/>
	<path d="M24.899,15.02c0.979,0.482,1.889,0.93,2.928,1.44c0.521-1.805,1.012-3.503,1.535-5.315
		c0.796,1.026,1.458,1.878,2.201,2.836c0.739-0.926,1.394-1.747,2.16-2.707c0.571,1.694,1.066,3.16,1.603,4.751
		c1.184-0.533,2.229-1.004,3.35-1.509c-1.355-2.602-2.645-5.079-3.992-7.664c-1.074,1.286-2.04,2.441-3.051,3.651
		c-0.383-0.53-0.676-0.959-0.992-1.369c-0.618-0.802-1.249-1.594-1.875-2.389c-0.078,0.306-0.127,0.627-0.262,0.906
		C27.332,10.076,26.139,12.492,24.899,15.02z"/>
</g>
</svg>
