<?xml version="1.0" encoding="utf-8"?>
<!-- Generator: Adobe Illustrator 17.0.2, SVG Export Plug-In . SVG Version: 6.00 Build 0)  -->
<!DOCTYPE svg PUBLIC "-//W3C//DTD SVG 1.1//EN" "http://www.w3.org/Graphics/SVG/1.1/DTD/svg11.dtd">
<svg version="1.1" id="Layer_1" xmlns="http://www.w3.org/2000/svg" xmlns:xlink="http://www.w3.org/1999/xlink" x="0px" y="0px"
	 width="64px" height="64px" viewBox="0 0 64 64" style="enable-background:new 0 0 64 64;" xml:space="preserve">
<g>
	<path style="fill:none;" d="M38.426,40.247c-0.005-0.005-0.01-0.011-0.015-0.017c-0.002,0.012-0.003,0.025-0.005,0.036
		C38.414,40.261,38.419,40.253,38.426,40.247z"/>
	<path style="fill:none;" d="M26.916,54.352c2.163,2.106,8.299,2.289,9.999,0.04c-1.557-0.013-3.234-0.032-4.91-0.039
		C30.284,54.346,28.563,54.352,26.916,54.352z"/>
	<path style="fill:none;" d="M38.924,40.934c-0.005-0.009-0.009-0.018-0.014-0.027c-0.008,0.009-0.014,0.019-0.023,0.028
		C38.9,40.935,38.911,40.933,38.924,40.934z"/>
	<path style="fill:none;" d="M26.485,16.892c3.722-0.863,7.424-0.944,11.167-0.22c0.296,0.057,0.835-0.128,0.961-0.362
		c1.517-2.825,0.667-7.375-1.832-9.024c-2.544-1.679-5.232-1.828-8.002-0.588c-0.004,0.015-0.007,0.031-0.011,0.046
		c0.626,0.796,1.256,1.588,1.875,2.389c0.317,0.411,0.61,0.839,0.992,1.369c1.011-1.21,1.977-2.366,3.051-3.651
		c1.347,2.586,2.637,5.063,3.992,7.664c-1.121,0.505-2.166,0.976-3.35,1.509c-0.537-1.591-1.031-3.057-1.603-4.751
		c-0.766,0.96-1.421,1.78-2.16,2.707c-0.743-0.958-1.405-1.81-2.201-2.836c-0.523,1.812-1.014,3.51-1.535,5.315
		c-1.039-0.511-1.949-0.959-2.928-1.44c1.24-2.528,2.433-4.944,3.607-7.369c0.135-0.279,0.183-0.6,0.262-0.906
		c-0.008-0.011-0.017-0.021-0.025-0.032l0.039-0.032c-1.826,0.493-3.157,1.675-4.117,3.22c-1.233,1.986-1.198,4.095,0.04,6.056
		C25.025,16.465,25.974,17.01,26.485,16.892z"/>
	<path style="fill:none;" d="M8.362,41.644c0.187-1.588,1.315-1.223,2.736-1.021c-0.881-1.414-1.964-2.592-2.797-3.531
		c-0.208-0.234-0.729,0.272-1.806,0.534c0.788-0.532,1.427-1.248,1.746-1.126c0.917,0.351,1.704,1.041,2.515,1.58
		c0.024-0.463,0.021-1.106,0.097-1.74c0.193-1.608-1.06-2.15-2.138-2.46c-0.481-0.138-1.406,0.633-1.859,1.206
		c-0.485,0.614-0.805,1.455-0.93,2.239c-0.504,3.157,0.385,6.043,1.996,8.725c0.743,1.237,1.857,2.046,3.505,2.406
		c-0.184-2.092-0.238-4.031-0.554-5.927C10.573,40.728,9.704,40.47,8.362,41.644z"/>
	<path style="fill:none;" d="M58.309,38.061c-0.081-1.731-0.791-3.1-2.186-4.092c-0.253-0.18-0.736-0.267-1.01-0.152
		c-1.798,0.759-2.498,2.766-1.802,4.355c0.775-0.559,1.543-1.297,2.459-1.678c0.34-0.141,1.028,0.557,1.557,0.872
		c-0.06,0.087,0,0-0.06,0.087c-1.497-0.959-3.01-0.326-3.846,3.216c1.41-0.549,1.799-0.407,2.163,0.886
		c-0.663-0.963-1.36-0.844-1.986-0.015c-0.382,0.506-0.852,1.101-0.891,1.682c-0.117,1.742-0.042,3.496-0.042,5.266
		c1.979-0.473,3.268-1.709,4.106-3.5C57.798,42.79,58.424,40.518,58.309,38.061z"/>
	<path style="fill:none;" d="M50.142,41.233c-0.055,0.031-0.11,0.061-0.165,0.092c-0.435-0.698-1.061-1.349-1.244-2.107
		c-0.152-0.627,0.063-1.466,0.389-2.062c0.984-1.802,1.753-3.904,0.834-5.615c-1.277-2.378-3.553-4.05-6.067-5.418
		c0.401,1.567,0.757,2.954,1.112,4.341c-0.116,0.075-0.231,0.15-0.347,0.225c-1.179-1.671-2.472-3.107-4.726-2.985
		c-2.184,0.119-3.578,1.569-5.268,3.157c0.737-2.686,1.843-4.762,3.922-6.457c-4.695-0.287-9.128-0.834-13.251,0.747
		c1.025,1.866,2.029,3.695,3.034,5.525c-0.115,0.068-0.229,0.135-0.344,0.203c-1.456-1.308-2.814-2.716-4.971-2.885
		c-2.325-0.182-3.489,1.478-4.995,3.126c0.103-1.032,0.172-1.732,0.244-2.453c-3.016,1.378-4.645,3.458-3.98,6.84
		c0.1,0.51,0.157,1.029,0.244,1.542c0.187,1.113,0.428,2.22,0.556,3.34c0.11,0.964,0.066,1.903-1.328,1.884
		c-0.182-0.002-0.379,0.296-0.55,0.475c-0.803,0.84-1.066,1.859-1.005,2.998c0.141,2.623,0.15,5.316,2.086,7.388
		c2.175,2.327,4.745,4.071,7.865,4.973c0.884,0.256,1.905,0.71,2.436,1.402c3.181,4.143,9.967,4.494,14.07,0.931
		c1.126-0.978,2.483-1.697,3.76-2.492c1.696-1.057,3.499-1.963,5.107-3.138c1.667-1.218,3.199-2.72,3.54-4.873
		c0.306-1.935,0.31-3.919,0.41-5.884c0.014-0.267-0.163-0.558-0.295-0.816C50.869,42.563,50.501,41.9,50.142,41.233z M31.987,59.591
		c-1.778,0.182-3.46-0.121-4.619-2.101c3.559,2.833,6.563,1.587,9.54-0.611C35.917,58.959,33.97,59.388,31.987,59.591z
		 M45.242,48.448c-0.764,0.327-1.234,0.733-1.56,1.55c-0.764,1.911-2.381,2.701-4.362,2.781c-0.934,0.038-0.852,0.091-1.222,0.929
		c-0.236,0.535-0.699,1.104-1.172,1.471c-3.031,2.354-8.885,1.875-11.409-1.051C25.441,54.039,25.421,54,25.335,54
		c0.378,0,0.693,0,1.147,0c-0.318-1-0.542-1.053-0.639-1.183c-1.401,0-2.666-0.164-3.869-0.372c-0.694-0.12-1.655-0.693-1.853-1.28
		c-0.44-1.304-1.363-1.852-2.394-2.559c-2.651-1.815-2.533-5.077,0.187-7.195c1.161,1.788,2.993,2.332,4.966,2.71
		c0.143-0.87,0.268-1.636,0.408-2.483c-3.495-1.585-3.469-4.581-2.902-7.723c0.432-2.392,2.027-4.009,3.814-4.052
		c1.858-0.044,3.541,1.555,4.066,3.946c0.203,0.926,0.271,1.882,0.403,2.845c0.933-0.069,1.877-0.207,2.817-0.189
		c0.888,0.018,1.773,0.189,2.658,0.298c0.042-0.604,0.106-1.152,0.189-1.652c0.049-0.61,0.126-1.213,0.325-1.774
		c0.364-1.026,1.024-2.07,1.834-2.79c1.6-1.422,4.009-0.708,5.162,1.392c0.824,1.5,1.085,3.073,0.963,4.683
		c0.039,1.37-0.304,2.376-0.798,3.099c-0.516,0.886-1.327,1.515-2.503,1.818c0.162,0.843,0.315,1.641,0.504,2.624
		c2.209-0.591,4.323-1.09,5.896-3.268c0.669,1.277,1.375,2.285,1.737,3.4C48.058,46.161,47.257,47.586,45.242,48.448z"/>
	<path style="fill:none;" d="M30.366,37.25c-4.931,0.487-8.228,5.344-6.064,9.838c1.701,3.533,6.238,5.269,9.908,3.739
		c2.866-1.194,4.522-3.303,4.831-6.422c-0.163-1.782-0.601-3.423-1.89-4.763C35.28,37.698,32.967,36.993,30.366,37.25z"/>
	<path d="M56.483,32.851c0.485-0.895,0.94-1.64,1.307-2.427c1.265-2.711,0.773-5.472,0.091-8.195
		c-1.545-6.172-4.699-11.446-9.395-15.7C41.52,0.219,33.386-1.661,24.543,1.519c-8.956,3.22-14.792,9.84-18.033,18.7
		c-1.565,4.278-1.334,8.531,1.181,12.577c-2.207,1.433-3.216,3.616-3.023,6.126c0.151,1.965,0.729,3.937,1.382,5.814
		c0.807,2.32,2.373,4.016,4.865,4.718c0.342,0.096,0.594,0.62,0.823,0.987c0.865,1.385,1.525,2.946,2.591,4.149
		c2.036,2.297,4.762,3.574,7.642,4.581c0.88,0.308,1.601,1.087,2.374,1.677c0.306,0.233,0.537,0.564,0.838,0.805
		c1.977,1.584,4.309,2.337,6.773,2.348c2.12,0.009,4.201-0.472,5.991-1.825c1.402-1.06,2.896-1.998,4.351-2.987
		c0.605-0.411,1.212-0.819,1.825-1.218c0.362-0.236,0.71-0.53,1.109-0.665c3.111-1.057,5.252-3.182,6.569-6.114
		c0.443-0.987,0.789-1.695,2-1.998c0.942-0.235,1.879-0.971,2.549-1.724c2.189-2.458,2.878-5.498,3-8.698
		C59.443,36.29,58.588,34.249,56.483,32.851z M7.922,46.049c-1.611-2.681-2.5-5.568-1.996-8.725c0.125-0.784,0.445-1.626,0.93-2.239
		c0.453-0.573,1.378-1.344,1.859-1.206c1.078,0.31,2.331,0.853,2.138,2.46c-0.076,0.634-0.073,1.278-0.097,1.74
		c-0.811-0.539-1.598-1.229-2.515-1.58c-0.319-0.122-0.959,0.594-1.746,1.126c1.076-0.262,1.598-0.768,1.806-0.534
		c0.833,0.939,1.916,2.117,2.797,3.531c-1.421-0.203-2.549-0.567-2.736,1.021c1.342-1.174,2.211-0.917,2.511,0.885
		c0.316,1.896,0.37,3.835,0.554,5.927C9.78,48.095,8.665,47.286,7.922,46.049z M24.664,9.901c0.96-1.545,2.291-2.727,4.117-3.22
		l-0.039,0.032c0.008,0.011,0.017,0.021,0.025,0.032c0.004-0.015,0.007-0.031,0.011-0.046c2.77-1.24,5.458-1.092,8.002,0.588
		c2.499,1.649,3.349,6.199,1.832,9.024c-0.126,0.234-0.665,0.419-0.961,0.362c-3.743-0.724-7.445-0.643-11.167,0.22
		c-0.511,0.118-1.46-0.427-1.78-0.935C23.467,13.997,23.431,11.887,24.664,9.901z M51.099,49.937
		c-0.341,2.153-1.872,3.655-3.54,4.873c-1.608,1.175-3.41,2.081-5.107,3.138c-1.277,0.796-2.634,1.514-3.76,2.492
		c-4.103,3.563-10.889,3.212-14.07-0.931c-0.531-0.691-1.552-1.146-2.436-1.402c-3.12-0.902-5.69-2.647-7.865-4.973
		c-1.936-2.072-1.946-4.765-2.086-7.388c-0.061-1.139,0.202-2.158,1.005-2.998c0.17-0.178,0.368-0.477,0.55-0.475
		c1.394,0.019,1.438-0.921,1.328-1.884c-0.128-1.12-0.369-2.227-0.556-3.34c-0.086-0.513-0.143-1.032-0.244-1.542
		c-0.665-3.382,0.964-5.462,3.98-6.84c-0.072,0.721-0.141,1.421-0.244,2.453c1.506-1.648,2.671-3.308,4.995-3.126
		c2.157,0.169,3.515,1.576,4.971,2.885c0.115-0.068,0.229-0.135,0.344-0.203c-1.005-1.83-2.01-3.659-3.034-5.525
		c4.123-1.581,8.555-1.034,13.251-0.747c-2.079,1.695-3.185,3.772-3.922,6.457c1.69-1.588,3.084-3.039,5.268-3.157
		c2.255-0.123,3.547,1.314,4.726,2.985c0.116-0.075,0.231-0.15,0.347-0.225c-0.355-1.387-0.711-2.774-1.112-4.341
		c2.514,1.369,4.79,3.04,6.067,5.418c0.919,1.711,0.15,3.812-0.834,5.615c-0.325,0.596-0.54,1.435-0.389,2.062
		c0.183,0.758,0.81,1.41,1.244,2.107c0.055-0.031,0.11-0.061,0.165-0.092c0.359,0.667,0.727,1.33,1.072,2.004
		c0.132,0.258,0.309,0.549,0.295,0.816C51.409,46.018,51.405,48.002,51.099,49.937z M52.665,48.488c0-1.77-0.075-3.524,0.042-5.266
		c0.039-0.581,0.509-1.176,0.891-1.682c0.626-0.829,1.324-0.948,1.986,0.015c-0.365-1.292-0.753-1.435-2.163-0.886
		c0.837-3.543,2.35-4.176,3.846-3.216c0.06-0.087,0,0,0.06-0.087c-0.529-0.315-1.217-1.013-1.557-0.872
		c-0.916,0.381-1.684,1.119-2.459,1.678c-0.696-1.589,0.004-3.596,1.802-4.355c0.273-0.115,0.756-0.028,1.01,0.152
		c1.395,0.992,2.105,2.361,2.186,4.092c0.115,2.457-0.511,4.729-1.539,6.927C55.933,46.779,54.644,48.015,52.665,48.488z"/>
	<path d="M45.715,40.896c-1.573,2.179-3.688,2.677-5.896,3.268c-0.189-0.983-0.342-1.782-0.504-2.624
		c1.177-0.304,1.987-0.932,2.503-1.818c0.494-0.723,0.837-1.729,0.798-3.099c0.122-1.61-0.139-3.182-0.963-4.683
		c-1.152-2.099-3.562-2.814-5.162-1.392c-0.81,0.72-1.47,1.764-1.834,2.79c-0.199,0.56-0.276,1.163-0.325,1.774
		c-0.083,0.5-0.147,1.047-0.189,1.652c-0.886-0.109-1.771-0.28-2.658-0.298c-0.941-0.018-1.884,0.12-2.817,0.189
		c-0.132-0.963-0.199-1.919-0.403-2.845c-0.525-2.391-2.208-3.99-4.066-3.946c-1.788,0.043-3.383,1.66-3.814,4.052
		c-0.567,3.142-0.593,6.138,2.902,7.723c-0.139,0.847-0.265,1.613-0.408,2.483c-1.973-0.378-3.805-0.923-4.966-2.71
		c-2.72,2.118-2.838,5.379-0.187,7.195c1.032,0.706,1.955,1.254,2.394,2.559c0.198,0.586,1.159,1.16,1.853,1.28
		c1.203,0.208,2.468,0.372,3.869,0.372C25.939,52.947,26.164,53,26.482,54c-0.454,0-0.769,0-1.147,0
		c0.087,0,0.107,0.039,0.184,0.128c2.523,2.926,8.378,3.405,11.409,1.051c0.473-0.367,0.935-0.936,1.172-1.471
		c0.37-0.838,0.288-0.891,1.222-0.929c1.98-0.081,3.598-0.87,4.362-2.781c0.327-0.817,0.796-1.223,1.56-1.55
		c2.015-0.862,2.815-2.287,2.21-4.152C47.09,43.181,46.384,42.173,45.715,40.896z M39.344,32c0.673,0,1.219,0.546,1.219,1.219
		s-0.546,1.219-1.219,1.219s-1.219-0.546-1.219-1.219S38.671,32,39.344,32z M38.924,40.934c-0.013,0-0.024,0.002-0.037,0.001
		c0.008-0.009,0.014-0.019,0.023-0.028C38.915,40.916,38.919,40.924,38.924,40.934z M38.426,40.247
		c-0.007,0.006-0.012,0.014-0.02,0.02c0.002-0.011,0.003-0.025,0.005-0.036C38.416,40.236,38.421,40.242,38.426,40.247z M25.344,32
		c0.673,0,1.219,0.546,1.219,1.219s-0.546,1.219-1.219,1.219s-1.219-0.546-1.219-1.219S24.671,32,25.344,32z M26.916,54.352
		c1.647,0,3.368-0.005,5.089,0.002c1.677,0.007,3.354,0.026,4.91,0.039C35.216,56.641,29.079,56.457,26.916,54.352z M34.21,50.827
		c-3.671,1.529-8.207-0.206-9.908-3.739c-2.164-4.494,1.134-9.35,6.064-9.838c2.602-0.257,4.915,0.448,6.786,2.393
		c1.289,1.34,1.727,2.981,1.89,4.763C38.732,47.524,37.075,49.633,34.21,50.827z"/>
	<path d="M27.368,57.49c1.159,1.98,2.841,2.284,4.619,2.101c1.983-0.203,3.93-0.632,4.921-2.713
		C33.931,59.077,30.927,60.323,27.368,57.49z"/>
	<path d="M24.899,15.02c0.979,0.482,1.889,0.93,2.928,1.44c0.521-1.805,1.012-3.503,1.535-5.315
		c0.796,1.026,1.458,1.878,2.201,2.836c0.739-0.926,1.394-1.747,2.16-2.707c0.571,1.694,1.066,3.159,1.603,4.751
		c1.184-0.533,2.229-1.004,3.35-1.509c-1.355-2.602-2.645-5.079-3.992-7.664c-1.074,1.286-2.04,2.441-3.051,3.651
		c-0.383-0.53-0.676-0.959-0.992-1.369c-0.618-0.802-1.249-1.594-1.875-2.389c-0.078,0.306-0.127,0.627-0.262,0.906
		C27.332,10.076,26.139,12.492,24.899,15.02z"/>
	<circle style="fill:#FFFFFF;" cx="39.344" cy="33.219" r="1.219"/>
	<circle style="fill:#FFFFFF;" cx="25.344" cy="33.219" r="1.219"/>
</g>
</svg>
