<?xml version="1.0" encoding="utf-8"?>
<!-- Generator: Adobe Illustrator 17.0.0, SVG Export Plug-In . SVG Version: 6.00 Build 0)  -->
<!DOCTYPE svg PUBLIC "-//W3C//DTD SVG 1.1//EN" "http://www.w3.org/Graphics/SVG/1.1/DTD/svg11.dtd">
<svg version="1.1" id="Layer_1" xmlns="http://www.w3.org/2000/svg" xmlns:xlink="http://www.w3.org/1999/xlink" x="0px" y="0px"
	 width="16px" height="16px" viewBox="0 0 16 16" style="enable-background:new 0 0 16 16;" xml:space="preserve">
<g>
	<path d="M7.167,12.75c0,0.962-0.262,1.75-0.583,1.75C6.262,14.5,6,13.712,6,12.75S6.262,11,6.583,11
		C6.904,11,7.167,11.788,7.167,12.75z"/>
</g>
<g>
	<path d="M10.167,12.75c0,0.962-0.263,1.75-0.583,1.75S9,13.712,9,12.75S9.262,11,9.583,11S10.167,11.788,10.167,12.75z"/>
</g>
<path d="M7.958,0.75C3.839,0.75,0.5,3.903,0.5,7.792c0,2.821,1.094,4.066,2.918,4.615c0.127,3.156,4.54,2.937,4.54,2.937
	c3.809,0.229,4.49-1.762,4.582-2.85c1.803-0.491,2.876-1.7,2.876-4.702C15.417,3.903,12.077,0.75,7.958,0.75z M0.875,9.406
	c0,0-0.68-3.286,0.984-5.281C1.859,4.125,2.922,7.547,0.875,9.406z M7.938,0.875c2.019,0,3.656,1.637,3.656,3.656
	S9.957,8.188,7.938,8.188S4.281,6.551,4.281,4.531S5.918,0.875,7.938,0.875z M9.104,15H8c0,0-4.65,0.417-4.304-3.25
	c0,0,1.423-1.5,4.256-1.396c0,0,2.086-0.229,4.378,1.375C12.33,11.729,12.667,15,9.104,15z M13.906,7.172
	c0,0-0.371-2.203,0.219-3.125c0,0,1.547,1.688,1.062,5.359C15.188,9.406,14.359,9.188,13.906,7.172z"/>
</svg>
