<?xml version="1.0" encoding="utf-8"?>
<!-- Generator: Adobe Illustrator 17.0.2, SVG Export Plug-In . SVG Version: 6.00 Build 0)  -->
<!DOCTYPE svg PUBLIC "-//W3C//DTD SVG 1.1//EN" "http://www.w3.org/Graphics/SVG/1.1/DTD/svg11.dtd">
<svg version="1.1" id="Layer_1" xmlns="http://www.w3.org/2000/svg" xmlns:xlink="http://www.w3.org/1999/xlink" x="0px" y="0px"
	 width="64px" height="64px" viewBox="0 0 64 64" style="enable-background:new 0 0 64 64;" xml:space="preserve">
<path d="M56.632,53.842L56.632,53.842c-2.537-0.001-6.236-1.579-9.457-9.095l-1.645-3.232c-1.46,1.219-3.149,1.863-4.836,1.863
	c-3.646,0-6.366-1.379-7.501-4.379h-2.513c-1.275,2-4.113,4.385-7.372,4.385c-1.936,0-3.603-1.037-4.836-2.166l-1.677,3.428
	C11.79,56.329,5.609,53.7,4.402,53c-6.064-2.24-4.177-14.794-3.94-16.231l1.551-10.367c-0.112-0.612-0.175-1.141-0.175-1.839
	c0-3.834,1.894-7.475,5.226-9.678C7.411,12,9.11,10,11.628,10h3.591c1.532,0,5.416,1.308,5.702,6.076
	c0.123,0.116,0.253,0.145,0.408,0.261C21.583,16.526,21.876,17,22.17,17h19.659c0.295,0,0.588-0.353,0.842-0.543
	c0.154-0.116,0.285-0.118,0.408-0.234c0.169-2.866,1.614-4.501,2.838-5.212C47.283,10.218,48.63,10,48.78,10h3.592
	c2.518,0,4.216,1.997,4.563,4.881c3.469,2.241,5.227,5.41,5.227,9.193c0,0.668-0.06,1.408-0.177,2.082l1.556,10.517
	c0.234,1.429,2.117,14.106-3.932,16.358C59.164,53.297,58.095,53.842,56.632,53.842z M46.17,36.257l3.68,7.239
	c2.059,4.797,4.454,7.39,6.782,7.391l0,0c0.887,0,1.48-0.389,1.486-0.393l0.167-0.112l0.214-0.078
	c3.062-1.005,2.752-9.291,2.121-13.146l-1.633-11.003l0.049-0.25c0.113-0.572,0.169-1.147,0.169-1.71
	c0-2.931-1.449-5.198-4.429-6.928l-0.71-0.412l-0.025-1.04C53.988,14.093,53.426,13,52.372,13H48.78C48.144,13,46,13.747,46,16.888
	v0.488l-0.282,0.392c-0.473,0.639-0.939,0.99-1.283,1.247c-0.302,0.226-0.437,0.161-0.594,0.426L43.414,20H20.586l-0.429-0.559
	c-0.157-0.265-0.294-0.284-0.596-0.51c-0.343-0.257-0.805-0.566-1.278-1.204L18,17.376v-0.489C18,13.747,15.856,13,15.204,13h-3.575
	c-1.054,0-1.616,1.093-1.67,2.814l-0.025,0.931l-0.71,0.467c-2.856,1.658-4.429,4.277-4.429,7.325c0,0.563,0.055,0.955,0.169,1.542
	l0.048,0.257l-1.63,10.892c-0.629,3.832-0.934,12.027,2.119,13.029l0.206,0.068l0.179,0.125c0.002,0.001,0.552,0.349,1.409,0.349
	c2.355,0,4.775-2.62,6.814-7.377l3.699-7.553l1.452,1.867c0.637,0.818,2.304,2.721,4.048,2.721c2.484,0,4.552-2.04,5.032-3.416
	L28.683,36h6.757l0.266,1.192c0.673,2.896,3.712,3.233,4.987,3.233c1.386,0,2.9-0.869,4.048-2.345L46.17,36.257z"/>
<circle cx="46.664" cy="24.687" r="2.291"/>
<circle cx="55.53" cy="24.687" r="2.291"/>
<circle cx="51.097" cy="20.254" r="2.291"/>
<circle cx="51.097" cy="29.121" r="2.291"/>
<circle cx="32.379" cy="30.598" r="2.545"/>
<circle cx="23.088" cy="33.869" r="3.872"/>
<circle cx="40.821" cy="33.869" r="3.872"/>
<path d="M30,24.015C30,24.559,29.559,25,29.015,25h-3.03C25.441,25,25,24.559,25,24.015v-1.03C25,22.441,25.441,22,25.985,22h3.03
	C29.559,22,30,22.441,30,22.985V24.015z"/>
<path d="M35.896,24.95C35.382,25.122,35,24.819,35,24.277v-0.985c0-0.542,0.382-0.845,0.896-0.674l2.545,0.855
	c0.514,0.171,0.524,0.452,0.01,0.623L35.896,24.95z"/>
<polygon points="7,24.582 7,26 10.417,26 11.969,24.5 10.417,23 7,23 "/>
<polygon points="13.791,20 11,20 11,22.922 12.5,24.474 14,22.922 14,20 "/>
<polygon points="11.723,30 14,30 14,27.011 12.5,25.459 11,27.011 11,30 "/>
<polygon points="18,25.469 18,23 15.097,23 13.545,24.5 15.097,26 18,26 "/>
</svg>
