<?xml version="1.0" encoding="utf-8"?>
<!-- Generator: Adobe Illustrator 17.0.2, SVG Export Plug-In . SVG Version: 6.00 Build 0)  -->
<!DOCTYPE svg PUBLIC "-//W3C//DTD SVG 1.1//EN" "http://www.w3.org/Graphics/SVG/1.1/DTD/svg11.dtd">
<svg version="1.1" id="Layer_1" xmlns="http://www.w3.org/2000/svg" xmlns:xlink="http://www.w3.org/1999/xlink" x="0px" y="0px"
	 width="64px" height="64px" viewBox="0 0 64 64" style="enable-background:new 0 0 64 64;" xml:space="preserve">
<path d="M63.55,37.981l-1.67-11.254c0.133-0.678,0.206-1.376,0.206-2.093c0-4.011-2.182-7.631-5.418-9.509
	C56.636,14.08,56.32,10,53.367,10H49.6c0,0-4.448,0-4.448,5h0.001c-0.767,1-1.457,1-2.067,3h-11.12H20.913c-0.61-1-1.299-2-2.067-3
	h0.001c0-5-4.448-5-4.448-5h-3.767c-2.953,0-3.269,4.08-3.301,5.125c-3.236,1.878-5.418,5.435-5.418,9.446
	c0,0.716,0.074,1.447,0.206,2.124l-1.67,11.27c0,0-2.239,13.614,3.272,15.422c0,0,5.769,4.051,10.936-8.004l2.755-5.609
	c1.268,1.63,3.244,2.624,5.469,2.624c3.279,0,6.02-2.398,6.741-5.398h2.344h2.411c0.721,3,3.461,5.399,6.741,5.399
	c2.225,0,4.201-1.023,5.469-2.653l2.755,5.626c5.167,12.056,10.936,8.016,10.936,8.016C65.789,51.579,63.55,37.981,63.55,37.981z
	 M10,21h2.902H13v2.299l-1.5,1.628L10,23.299V21z M6,27v-1.96V24h3.362l1.628,1.5L9.362,27H6z M13,31h-2.268H10v-3.413l1.5-1.627
	l1.5,1.627V31z M18,25.97V27h-3.729l-1.628-1.5l1.628-1.5H18V25.97z M52.031,18.098c1.327,0,2.402,1.076,2.402,2.402
	c0,1.327-1.076,2.403-2.402,2.403s-2.403-1.076-2.403-2.403C49.628,19.173,50.704,18.098,52.031,18.098z M22.652,38.842
	c-2.243,0-4.061-1.818-4.061-4.061s1.818-4.061,4.061-4.061s4.061,1.818,4.061,4.061S24.895,38.842,22.652,38.842z M25,26v-3h5v3H25
	z M32.397,34.02c-1.474,0-2.669-1.195-2.669-2.669c0-1.474,1.195-2.669,2.669-2.669c1.474,0,2.669,1.195,2.669,2.669
	C35.067,32.825,33.871,34.02,32.397,34.02z M35,25.753v-3.1l4.65,1.55L35,25.753z M41.252,38.842c-2.243,0-4.061-1.818-4.061-4.061
	s1.818-4.061,4.061-4.061s4.061,1.818,4.061,4.061S43.496,38.842,41.252,38.842z M47.381,27.553c-1.327,0-2.403-1.076-2.403-2.403
	c0-1.327,1.076-2.402,2.403-2.402c1.327,0,2.402,1.076,2.402,2.402C49.783,26.477,48.707,27.553,47.381,27.553z M52.031,32.203
	c-1.327,0-2.403-1.076-2.403-2.403c0-1.327,1.076-2.402,2.403-2.402s2.402,1.076,2.402,2.402
	C54.433,31.127,53.357,32.203,52.031,32.203z M56.681,27.553c-1.327,0-2.403-1.076-2.403-2.403c0-1.327,1.076-2.402,2.403-2.402
	s2.402,1.076,2.402,2.402C59.083,26.477,58.007,27.553,56.681,27.553z"/>
</svg>
