<?xml version="1.0" encoding="utf-8"?>
<!-- Generator: Adobe Illustrator 17.0.2, SVG Export Plug-In . SVG Version: 6.00 Build 0)  -->
<!DOCTYPE svg PUBLIC "-//W3C//DTD SVG 1.1//EN" "http://www.w3.org/Graphics/SVG/1.1/DTD/svg11.dtd">
<svg version="1.1" id="Layer_1" xmlns="http://www.w3.org/2000/svg" xmlns:xlink="http://www.w3.org/1999/xlink" x="0px" y="0px"
	 width="64px" height="64px" viewBox="0 0 64 64" style="enable-background:new 0 0 64 64;" xml:space="preserve">
<path d="M64,5.132C64,2.85,62.15,1,59.868,1H4.132C1.85,1,0,2.85,0,5.132v54.736C0,62.15,1.85,64,4.132,64h55.736
	C62.15,64,64,62.15,64,59.868V5.132z M7.291,60.897c-1.563,0-2.829-1.267-2.829-2.829c0-1.563,1.267-2.829,2.829-2.829
	s2.829,1.267,2.829,2.829C10.121,59.63,8.854,60.897,7.291,60.897z M7.291,9.245c-1.563,0-2.829-1.267-2.829-2.829
	c0-1.563,1.267-2.829,2.829-2.829s2.829,1.267,2.829,2.829C10.121,7.978,8.854,9.245,7.291,9.245z M42.597,56H29V46h13.653
	L42.597,56z M52,28.595l-10,9.137V44H29v-9.257l10-10.491v-2.708L37.464,20h-8.831L27,21.544V26H14v-9.926L21.695,9H44.29L52,16.017
	V28.595z M58.943,60.897c-1.563,0-2.829-1.267-2.829-2.829c0-1.563,1.267-2.829,2.829-2.829s2.829,1.267,2.829,2.829
	C61.773,59.63,60.506,60.897,58.943,60.897z M58.943,9.245c-1.563,0-2.829-1.267-2.829-2.829c0-1.563,1.267-2.829,2.829-2.829
	s2.829,1.267,2.829,2.829C61.773,7.978,60.506,9.245,58.943,9.245z"/>
</svg>
