<?xml version="1.0" encoding="utf-8"?>
<!-- Generator: Adobe Illustrator 17.0.2, SVG Export Plug-In . SVG Version: 6.00 Build 0)  -->
<!DOCTYPE svg PUBLIC "-//W3C//DTD SVG 1.1//EN" "http://www.w3.org/Graphics/SVG/1.1/DTD/svg11.dtd">
<svg version="1.1" id="Layer_1" xmlns="http://www.w3.org/2000/svg" xmlns:xlink="http://www.w3.org/1999/xlink" x="0px" y="0px"
	 width="64px" height="64px" viewBox="0 0 64 64" style="enable-background:new 0 0 64 64;" xml:space="preserve">
<g>
	<path d="M50.883,40.443c8.934-6.105,8.92-13.103,8.92-13.103c1.34-9.827-5.835-9.083-5.835-9.083
		c-2.382,1.787-0.651,9.827-0.651,9.827c-5.212,17.719-19.022,14.741-19.022,14.741c-12.706-1.703-13.946-15.269-14.06-18.51
		l0.1,0.028l0.023-0.857c0.001-0.031,0.11-3.196,2.261-7.963l0.3-0.664l-0.128-0.045c1.317-2.273,6.637-10.085,17.088-9.065
		c0,0,7.743,0.149,12.359,8.19c0,0-1.191-11.465-15.783-13.401c0,0-6.552-1.787-14.443,1.34c0,0-3.871,2.321,1.34,5.851
		c0,0-2.089,1.084-4.381,5.733l-1.66-0.588l-0.298,0.278c-0.159,0.149-3.896,3.709-3.109,8.993l0.409,0.43L16,22.947v1.712
		C0,42.56,4.934,46.883,4.934,46.883c2.234,3.574,9.059-3.09,9.059-3.09l1.403,0.819c-1.936,0.596-2.128,2.779-2.128,2.779
		C7.759,50.072,10.259,53,10.259,53c0,0-0.006,0-0.006,0c-0.004,0-5.324,4.258-0.859,9.616c0,0,5.694,2.35,10.943,0.722
		c0,0,6.141-3.098,7.816-2.54c0,0,2.33-1.799,1.779-2.799c0,0-0.003,0-0.003,0c0.843,0,1.671,0.099,2.485,0.085
		c-0.069,0.003-0.135,0.041-0.204,0.043c0,0-0.955,1.99,1.179,3.218c0,0,9.988,2.8,18.848,1.907c0,0,3.611-0.554,3.611-4.351
		c0,0,0.843-3.351-2.426-5.36c0,0-0.149,0.082-0.426,0.216l-0.008-0.016c0.478-0.215,0.737-0.346,0.737-0.346
		c2.382-3.871-2.533-5.461-2.533-5.461c-0.298-1.887-2.535-2.878-2.535-2.878C50.592,44.463,50.883,40.443,50.883,40.443z
		 M15.176,21.519c-0.347-3.576,1.719-6.251,2.479-7.102l3.45,1.222c-1.395,3.27-1.858,5.746-2.012,6.969L15.176,21.519z"/>
	<ellipse transform="matrix(0.3358 -0.9419 0.9419 0.3358 5.5336 45.3216)" cx="34.902" cy="18.737" rx="7.402" ry="5.5"/>
	<ellipse transform="matrix(-0.9875 -0.1579 0.1579 -0.9875 89.2998 51.1833)" cx="46.683" cy="22.045" rx="4.812" ry="7.798"/>
	<ellipse transform="matrix(0.3358 -0.9419 0.9419 0.3358 -10.8304 57.9007)" cx="35.639" cy="36.63" rx="2.878" ry="2.156"/>
</g>
</svg>
