<?xml version="1.0" encoding="utf-8"?>
<!-- Generator: Adobe Illustrator 17.0.0, SVG Export Plug-In . SVG Version: 6.00 Build 0)  -->
<!DOCTYPE svg PUBLIC "-//W3C//DTD SVG 1.1//EN" "http://www.w3.org/Graphics/SVG/1.1/DTD/svg11.dtd">
<svg version="1.1" id="Layer_1" xmlns="http://www.w3.org/2000/svg" xmlns:xlink="http://www.w3.org/1999/xlink" x="0px" y="0px"
	 width="128px" height="128px" viewBox="0 0 128 128" style="enable-background:new 0 0 128 128;" xml:space="preserve">
<g>
	<path d="M89.214,24.799L89.2,24.908l4.753-3.168C79.624,10.106,66.651,11.359,66.651,11.359
		c-7.418-0.287-14.102,1.549-20.004,4.547l14.886,5.345L89.214,24.799z"/>
	<path d="M42.795,53.965l-0.835-1.224l12.913-8.808l4.58-20.284l-16.229-5.827c-17.769,10.887-27.502,31.65-27.502,31.65
		C24.972,49.077,34.747,51.325,42.795,53.965z"/>
	<path d="M44.553,54.557c5.875,2.028,10.663,4.181,13.403,5.499L55.205,47.29L44.553,54.557z"/>
	<path d="M105.468,71.763c-0.046,0.01-0.095,0.019-0.141,0.029l0.005,0.01L105.468,71.763z"/>
	<path d="M97.898,57.927L87.729,27.593l-25.396-3.256l-4.628,20.497l3.392,15.743l-0.625,0.737
		c16.187,7.126,25.252,9.745,30.06,10.682c0.007,0.001,0.014,0.003,0.021,0.004l0.706-1.353L97.898,57.927z"/>
	<path d="M108.13,71.01l-0.006-0.011c-0.059,0.021-0.119,0.043-0.179,0.064L108.13,71.01z"/>
	<path d="M98.485,73c2.634,0,4.888-0.518,6.841-0.936l-5.821-10.66l-5.024,9.734l-0.44,1.621C94.986,72.81,95.362,73,95.362,73
		H98.485z"/>
	<polygon points="90.563,72.002 90.553,72.001 90.553,72.001 	"/>
	<path d="M101.091,58.137l6.573,12.021l0.46,0.841c0.046-0.017,0.087-0.036,0.132-0.053c11.663-4.33,8.398-16.542,8.398-16.542
		c-6.056-14.601-13.299-24.266-20.368-30.663l-5.498,3.665L101.091,58.137z"/>
	<path d="M110.313,90.545c-0.119,0.339-0.266,0.758-0.439,1.25c-0.193,0.484-0.45,1.026-0.717,1.641
		c-0.25,0.624-0.616,1.27-1.002,1.979c-0.361,0.724-0.849,1.449-1.359,2.229c-0.483,0.799-1.146,1.545-1.765,2.386
		c-0.705,0.772-1.398,1.628-2.247,2.403c-0.166,0.162-0.349,0.321-0.521,0.482c0.101-0.158,0.212-0.305,0.31-0.465
		c0.421-0.627,0.754-1.318,1.128-1.962c0.347-0.662,0.64-1.344,0.948-1.986c0.246-0.675,0.506-1.318,0.703-1.945
		c0.156-0.641,0.303-1.248,0.439-1.808c0.069-0.574,0.133-1.1,0.189-1.567c0.084-0.461,0.014-0.88,0.018-1.216
		c-0.005-0.139-0.01-0.258-0.014-0.372c2.902-1.106,4.345-2.324,4.345-2.324c-15.133,4.479-32.528,0.232-32.528,0.232
		c3.474,1.397,6.663,2.342,9.573,2.947c-0.045,0.188-0.096,0.401-0.156,0.648c-0.106,0.457-0.236,1.012-0.384,1.649
		c-0.119,0.643-0.442,1.316-0.689,2.076c-0.27,0.753-0.53,1.581-0.98,2.381c-0.201,0.409-0.408,0.83-0.619,1.26
		c-0.105,0.215-0.212,0.431-0.319,0.65c-0.131,0.206-0.264,0.413-0.398,0.623c-0.555,0.823-1.027,1.74-1.726,2.519
		c-0.326,0.405-0.654,0.813-0.984,1.223c-0.329,0.41-0.732,0.759-1.094,1.142c-0.38,0.366-0.723,0.769-1.129,1.104
		c-0.4,0.341-0.799,0.68-1.195,1.017c-0.383,0.352-0.803,0.652-1.22,0.946c-0.414,0.297-0.823,0.591-1.226,0.879
		c-0.858,0.499-1.641,1.057-2.465,1.45c-0.403,0.211-0.795,0.416-1.175,0.614c-0.391,0.175-0.768,0.344-1.131,0.507
		c-0.717,0.344-1.412,0.563-2.008,0.809c-0.611,0.196-1.139,0.395-1.581,0.51c-0.22,0.063-0.417,0.12-0.587,0.169
		c-0.112,0.03-0.208,0.056-0.292,0.098c-0.315-0.016-0.629-0.036-0.951-0.058c-0.762-0.048-1.522-0.096-2.278-0.144
		c-0.755-0.059-1.513-0.069-2.256-0.168c-0.743-0.098-1.483-0.196-2.218-0.293c-0.735-0.097-1.465-0.193-2.19-0.288
		c-0.716-0.145-1.426-0.288-2.13-0.431c-0.704-0.144-1.402-0.286-2.093-0.428c-0.688-0.154-1.352-0.37-2.018-0.549
		c-0.664-0.187-1.32-0.371-1.969-0.554c-0.643-0.199-1.259-0.448-1.878-0.665c-0.087-0.031-0.17-0.062-0.257-0.093
		c0.114-0.012,0.227-0.021,0.343-0.041c0.739-0.125,1.523-0.231,2.323-0.392c0.783-0.243,1.607-0.447,2.412-0.745
		c0.394-0.174,0.791-0.348,1.189-0.524c0.402-0.168,0.798-0.35,1.165-0.591l1.123-0.671c0.374-0.221,0.698-0.514,1.045-0.765
		c0.705-0.494,1.295-1.099,1.889-1.657c0.561-0.587,1.086-1.177,1.537-1.768c0.447-0.595,0.86-1.164,1.189-1.724
		c0.691-1.098,1.147-2.08,1.44-2.779c0.146-0.347,0.254-0.631,0.321-0.832c0.064-0.192,0.098-0.294,0.098-0.294l-0.509-0.165
		c0.185,0.028,0.364,0.063,0.556,0.082c0,0,10.438,1.759,14.41-8.579l-24.9-9.368c0,0-0.37,15.814,9.481,17.796
		c-0.016,0.048-0.041,0.117-0.077,0.207c-0.062,0.171-0.165,0.426-0.313,0.755c-0.29,0.651-0.745,1.574-1.425,2.598
		c-0.323,0.524-0.727,1.051-1.161,1.603c-0.438,0.547-0.946,1.089-1.484,1.628c-0.569,0.508-1.131,1.063-1.8,1.505
		c-0.329,0.226-0.634,0.494-0.987,0.689l-1.056,0.597c-0.343,0.217-0.715,0.376-1.092,0.522c-0.372,0.154-0.743,0.308-1.11,0.46
		c-0.752,0.258-1.523,0.426-2.249,0.637c-0.748,0.131-1.481,0.21-2.169,0.313c-0.689,0.1-1.359,0.041-1.967,0.07
		c-0.61,0.008-1.169,0.034-1.665-0.046c-0.074-0.008-0.136-0.014-0.207-0.022c-0.432-0.192-0.862-0.376-1.268-0.591
		c-0.52-0.282-1.03-0.558-1.53-0.829c-2.003-1.078-3.698-2.285-5.155-3.396c-0.706-0.582-1.358-1.138-1.944-1.666
		c-0.553-0.56-1.105-1.036-1.526-1.531c-0.56-0.602-1.004-1.134-1.36-1.592c3.157,0.479,8.038,0.195,12.601-4.286
		c0,0,5.871-4.427,7.015-16.164c1.469,0.45,2.449,0.742,2.449,0.742s-3.899-1.657-7.835-3.211c-1.964-0.789-3.928-1.578-5.401-2.169
		c-0.736-0.296-1.35-0.542-1.78-0.715c-0.217-0.08-0.378-0.169-0.504-0.185c-0.129-0.008-0.233,0.087-0.233,0.087l-0.017,0.048
		c-1.643-0.842-9.015-4.491-14.068-4.896c0,0-3.931,16.675,3.743,20.958c0,0,10.557,3.758,10.666-14.778
		c0.44,0.14,1.058,0.338,1.799,0.574c0.167,0.053,0.361,0.115,0.54,0.172c0.113,0.875,0.189,1.767,0.189,2.688
		c0,8.417-4.858,18.201-10.85,18.201c-5.992,0-10.85-9.784-10.85-18.201c0-0.52,0.008-1.032,0.022-1.538l0.605-5.525
		c0.246-1.11,0.572-2.145,1.016-3.073l-0.646-0.311c0,0-8.219,2.56-5.608,12.656C0.726,73.442,1.606,64.889,1.606,64.889
		C3.086,56.336,14.6,49.757,14.6,49.757C2.921,52.718,0.783,61.268,0.783,61.268c-4.394,14.393,11.023,20.273,13.48,21.111
		l1.2,0.629c0.655,7.907,4.984,14.807,10.488,16.06c0.024,0.33,0.07,0.84,0.14,0.951c0.12,0.176,0.303,0.475,0.536,0.775
		c0.461,0.64,1.173,1.522,2.164,2.551c0.477,0.536,1.078,1.043,1.693,1.64c0.644,0.562,1.357,1.149,2.128,1.761
		c1.582,1.166,3.416,2.42,5.553,3.526c0.534,0.277,1.078,0.56,1.633,0.848c0.558,0.282,1.153,0.507,1.743,0.77
		c0.594,0.254,1.198,0.512,1.812,0.774c0.63,0.217,1.269,0.436,1.917,0.659c0.65,0.216,1.3,0.464,1.973,0.66
		c0.678,0.179,1.365,0.359,2.058,0.542c0.695,0.174,1.391,0.385,2.106,0.533c0.718,0.134,1.443,0.27,2.174,0.406
		c0.731,0.134,1.468,0.27,2.21,0.406c0.748,0.086,1.502,0.172,2.261,0.259c0.758,0.087,1.521,0.174,2.287,0.261
		c0.766,0.088,1.542,0.086,2.318,0.133c0.776,0.036,1.555,0.071,2.337,0.107c0.38,0.02,0.769,0.039,1.16,0.05l0.86-0.003
		c0.118-0.002,0.235,0.003,0.353-0.002c1.584-0.04,3.16-0.144,4.733-0.302c6.281-0.631,12.497-2.05,17.997-4.293
		c1.255-0.511,2.465-1.07,3.635-1.663c0,0,4.137-2.323,5.225-3.122c1.77-1.249,3.348-2.602,4.709-3.973
		c0.867-0.821,1.575-1.723,2.291-2.538c0.631-0.884,1.303-1.672,1.792-2.51c0.516-0.82,1.008-1.58,1.37-2.337
		c0.388-0.742,0.754-1.418,1.003-2.068c0.266-0.641,0.521-1.206,0.712-1.709c0.17-0.511,0.314-0.945,0.431-1.298
		c0.233-0.704,0.358-1.08,0.358-1.08l-0.946-0.282C110.679,89.504,110.552,89.866,110.313,90.545z M40.095,80.938
		c0-1.514-0.15-2.977-0.41-4.376c1.136,0.363,2.381,0.76,3.64,1.162c0.987,0.321,1.976,0.636,2.907,0.929l-0.586-0.152
		c0,0,0.809,20.865-16.715,20.693C35.196,98.242,40.095,89.959,40.095,80.938z M101.039,101.447
		c-0.824,1.174-1.69,2.324-2.573,3.348c-0.424,0.526-0.883,0.994-1.289,1.462c-0.426,0.451-0.828,0.878-1.199,1.272
		c-0.029,0.029-0.055,0.055-0.084,0.084c-1.959,1.137-4.088,2.166-6.36,3.047c-5.172,2.007-11.013,3.264-16.915,3.81
		c0.378-0.203,0.764-0.411,1.164-0.626c0.869-0.431,1.703-1.034,2.607-1.58c0.427-0.314,0.86-0.632,1.3-0.955
		c0.441-0.32,0.885-0.647,1.292-1.029c0.417-0.369,0.836-0.741,1.258-1.115c0.419-0.376,0.776-0.821,1.167-1.228
		c0.373-0.425,0.786-0.814,1.123-1.266c0.337-0.452,0.672-0.901,1.004-1.348c0.709-0.861,1.186-1.858,1.739-2.757
		c0.133-0.228,0.265-0.454,0.396-0.678c0.106-0.237,0.211-0.471,0.314-0.703c0.201-0.466,0.398-0.922,0.59-1.366
		c0.419-0.874,0.641-1.762,0.876-2.569c0.211-0.813,0.498-1.533,0.583-2.21c0.108-0.671,0.201-1.256,0.279-1.738
		c0.038-0.246,0.071-0.462,0.1-0.652c7.362,1.359,12.844,0.518,16.482-0.669c-0.036,0.299-0.009,0.657-0.119,1.061
		c-0.087,0.42-0.185,0.895-0.292,1.412c-0.168,0.503-0.351,1.048-0.544,1.625c-0.241,0.56-0.495,1.151-0.758,1.762
		c-0.322,0.588-0.625,1.207-0.983,1.812C101.811,100.243,101.472,100.871,101.039,101.447z"/>
	<path d="M117.075,53.673c20.562,20.365-4.772,35.831-4.772,35.831C144.58,72.385,117.075,53.673,117.075,53.673z"/>
</g>
</svg>
