<?xml version="1.0" encoding="utf-8"?>
<!-- Generator: Adobe Illustrator 17.0.2, SVG Export Plug-In . SVG Version: 6.00 Build 0)  -->
<!DOCTYPE svg PUBLIC "-//W3C//DTD SVG 1.1//EN" "http://www.w3.org/Graphics/SVG/1.1/DTD/svg11.dtd">
<svg version="1.1" id="Layer_1" xmlns="http://www.w3.org/2000/svg" xmlns:xlink="http://www.w3.org/1999/xlink" x="0px" y="0px"
	 width="64px" height="64px" viewBox="0 0 64 64" style="enable-background:new 0 0 64 64;" xml:space="preserve">
<g>
	<path d="M39.974,17.025C39.941,16.814,39.953,16.89,39.974,17.025L39.974,17.025z"/>
	<path d="M62.321,36.762C62.409,37.723,62.272,26.074,62.321,36.762L62.321,36.762z"/>
	<path d="M5.005,39.384c0.033,0.379,0.075,0.765,0.123,1.152C5.065,39.819,5.007,39.218,5.005,39.384z"/>
	<path d="M62.321,36.762c-0.022-4.708-2.023-9.048-5.341-12.343c-1.27-1.261-2.694-2.363-4.211-3.311
		c-0.562-0.351-1.138-0.681-1.725-0.988c-0.235-0.123-0.472-0.242-0.711-0.357c-0.583-0.281-0.52-0.756-0.672-1.38
		c-1.92-7.883-8.473-23.285-18.996-16.851c-0.437,0.267-0.858,0.561-1.261,0.878c-0.33,0.26-1.569-0.736-1.995-0.952
		c-1.38-0.7-2.905-1.173-4.465-1.142c-2.627,0.053-4.836,1.589-6.288,3.701c-0.468,0.681-0.867,1.412-1.186,2.174
		c-0.2,0.478-0.887,0.931-1.233,1.337c-0.496,0.582-0.94,1.208-1.33,1.866c-1.318,2.225-2.009,4.774-2.297,7.33
		c-0.228,2.021-0.215,4.071-0.006,6.093c0.054,0.518,0.213,0.717-0.243,1.047c-0.643,0.464-1.263,0.96-1.855,1.487
		c-1.142,1.016-2.181,2.148-3.082,3.382c-2.146,2.938-3.607,6.555-3.808,10.212c-0.096,1.74,0.309,3.574,0.713,5.255
		c0.538,2.232,1.379,4.411,2.659,6.326c1.645,2.461,4.027,4.395,6.855,5.315c0.416,0.135,0.839,0.248,1.268,0.336
		c0.93,0.191,1.488,1.269,2.162,1.927c2.134,2.087,4.704,3.72,7.518,4.724c5.362,1.914,11.351,1.449,16.396-1.163
		c2.923-1.513,5.485-3.695,7.479-6.312c3.422-0.306,6.845-1.306,9.6-3.422C60.779,48.467,62.834,42.334,62.321,36.762z
		 M16.981,11.769c0.996-2.117,2.861-4.283,5.405-4.267c3.259,0.02,6.189,1.843,7.048,5.097c1.238-3.846,5.026-7.498,9.048-5.132
		c3.112,1.831,4.763,5.637,5.857,8.897c0.501,1.492,0.906,3.015,1.249,4.55c0.16,0.715-0.633,0.924-1.203,1.309
		c-0.551,0.372-1.102,0.744-1.653,1.116c-0.076,0.051-1.408-0.972-1.574-1.077c-0.322-0.204-0.651-0.399-0.985-0.583
		c-0.041-0.503-0.099-4.005-0.176-4.503c0.018,0.118,0.029,0.188,0-0.001c-0.011-0.071-0.016-0.106-0.023-0.15
		c0.008,0.049,0.016,0.101,0.023,0.149c-0.129-0.829-0.308-1.65-0.54-2.456c-0.71,0.146-1.453-0.015-2.03-0.456
		c-1.224-0.933-1.313-2.781-0.19-3.832c-3.051-2.8-3.34,7.711-3.24,9.039c-2.627-0.484-5.298-0.444-7.915,0.108
		c-0.098-0.521-0.16-4.812-0.724-4.759c-0.718,0.067-1.442-0.194-1.959-0.695c-1.022-0.991-1.002-2.666,0.036-3.638
		c-2.569-2.361-3.27,2.973-3.292,4.408c-0.014,0.94,0.05,4.881,0.175,5.812c0.042,0.31,0.093,0.616,0.148,0.924
		c-0.449,0.241-0.89,0.498-1.321,0.771c-1.519,0.96-2.917,2.108-4.165,3.4C14.98,21.093,14.927,16.134,16.981,11.769z M5.128,40.535
		c0.144,1.649,0.313,3.91-0.123-1.152c0.029-2.496,0.978-5.063,2.227-7.187c0.216-0.367,0.445-0.726,0.688-1.076
		c0.375-0.542,0.751-0.251,1.265,0.046c0.6,0.346,1.467,0.962,1.17,1.671c-0.826,1.968-1.347,4.007-1.615,6.12
		c-0.977-0.495-1.947-1.017-2.868-1.611c0.858,1.107,1.759,2.18,2.701,3.217c-0.074,1.285-0.041,2.576,0.101,3.856
		c0.274,2.476,0.954,4.903,2.002,7.163C7.061,49.175,5.638,44.694,5.128,40.535z M21.396,25c5.528-3.272,12.512-3.286,17.972,0.146
		c4.504,2.831,7.526,7.647,8.382,12.872c0.938,5.726-0.72,11.77-4.505,16.175c-1.657,1.929-4.78,3.13-7.161,3.801
		c-2.875,0.81-5.917,0.966-8.863,0.487c-3.857-0.627-7.51-2.344-10.413-4.966c-1.249-1.127-2.782-2.595-3.428-4.177
		c-0.788-1.931-1.26-3.988-1.402-6.069c-0.275-4.037,0.693-8.144,2.77-11.619c0.937-1.566,2.093-3,3.43-4.242
		c0.657-0.611,1.357-1.175,2.094-1.686C20.637,25.468,21.012,25.227,21.396,25 M55.862,47.641c-1.755,2.072-4.232,3.324-6.85,3.924
		c0.894-1.82,1.55-3.756,1.946-5.745c0.212-1.066,0.349-2.146,0.408-3.231c0.029-0.528,0.039-1.058,0.033-1.587
		c-0.009-0.773,0.061-0.859,0.617-1.408c1.816-1.795,3.568-3.704,5.075-5.771c-1.857,1.552-3.833,2.96-5.9,4.219
		c-0.264-1.907-0.77-3.779-1.503-5.559c-0.286-0.694-1.128-1.753-0.794-2.44c0.336-0.692,0.783-1.34,1.357-1.857
		c1.341-1.208,3.128-1.284,4.804-0.848c1.114,1.202,2.057,2.565,2.725,4.064C59.96,36.304,59.357,43.517,55.862,47.641z"/>
	<path d="M23.156,27.585c-0.318-0.192-0.737-0.352-1.111-0.255c-0.511,0.133-0.942,1.213-0.598,1.618
		c1.334,1.574,3.309,2.658,5.257,3.248C25.968,30.435,24.785,28.626,23.156,27.585z"/>
	<path d="M38.185,30.018c-0.316-0.298-0.842-0.28-1.237-0.191c-1.876,0.471-3.571,1.812-4.826,3.25
		c2.022,0.057,4.19-0.344,5.954-1.379C38.523,31.436,38.562,30.374,38.185,30.018z"/>
</g>
</svg>
