<?xml version="1.0" encoding="utf-8"?>
<!-- Generator: Adobe Illustrator 17.0.0, SVG Export Plug-In . SVG Version: 6.00 Build 0)  -->
<!DOCTYPE svg PUBLIC "-//W3C//DTD SVG 1.1//EN" "http://www.w3.org/Graphics/SVG/1.1/DTD/svg11.dtd">
<svg version="1.1" id="Layer_1" xmlns="http://www.w3.org/2000/svg" xmlns:xlink="http://www.w3.org/1999/xlink" x="0px" y="0px"
	 width="362px" height="511px" viewBox="0 0 362 511" style="enable-background:new 0 0 362 511;" xml:space="preserve">
<g>
	<rect x="123" y="250" width="20" height="37"/>
	<rect x="176" y="250" width="20" height="37"/>
	<path d="M91,466v-15h20v-55v-14v-6H41v6v14v55h20v15H91z M61,396h30v50H61V396z"/>
	<rect x="92" y="471" width="20" height="20"/>
	<polygon points="20,451 20,343 0,343 0,451 19,451 19,471 39,471 39,451 	"/>
	<rect x="39" y="471" width="20" height="20"/>
	<rect x="59" y="491" width="33" height="20"/>
	<path d="M344,141V86h18V0h-36v22h-19v33h-20v56h-14v21h-24v-12h-18v-19h-36V81h-77v20h-18v20H82v20H66v19H49v-18H29v20H10v73h19v20
		h20v-20H30v-73h19v36h19v17H49v20h20v-20h18v20H69v20h20v-20h144v18h20v14h20v-20h33v40h-10v-20h-23v60h-34h-1h-4v-20v-20h19v-20
		h-20v20h-19v20h-13v20h-5h-1h-14v-39h-36v39h-19v-20h-19v-19H89v-20H69v-13H49v32H29v20h20h20v-19h18v19H69v20h20v-19h17v19H92v16
		H41v-16H29v-20H9v20h12v20h19v16h69v-16h18v70v18v16h-14v20h20v-16h68v16h37v-20h-37v-20h36v-16h20v16h-18v20h20v-20h18v-84v-5v-15
		h19v-20h20v-19v-1v-44h-8v-12h17v-16h20v-42h-16v-32H344z M195,347h1h9v13h-58v-13H195z M237,397h-36v20h-54v-40h34v18h20v-18h36
		V397z M237,376v-16h20v16H237z M289,152v-20h-7v-12h14V64h20V31h19V9h18v68h-18v55h-15v37h-19v15h-8v-18h-24v-14H289z M210,141v19
		h-15v-19H210z M194,160v18h-71v-18H194z M118,160h-16v-19h16V160z M88,215v-20H69v-34h17v-1h1v20h36v18h72v-18h36v35H88z M270,247
		h-17v-14h-20v-18h18h2v16h17V247z M271,211v-16h-20v-22h18v2h15v18h26v-15h15v33H271z"/>
</g>
</svg>
